<mxfile host="65bd71144e">
    <diagram id="AO_GGIGprWeuYINtOLVt" name="ページ1">
        <mxGraphModel dx="995" dy="559" grid="1" gridSize="10" guides="1" tooltips="1" connect="1" arrows="1" fold="1" page="1" pageScale="1" pageWidth="827" pageHeight="1169" math="0" shadow="0">
            <root>
                <mxCell id="0"/>
                <mxCell id="1" parent="0"/>
                <mxCell id="2" value="顧客" style="shape=umlActor;verticalLabelPosition=bottom;verticalAlign=top;html=1;" vertex="1" parent="1">
                    <mxGeometry x="50" y="490" width="30" height="60" as="geometry"/>
                </mxCell>
                <mxCell id="3" value="メニュー画面" style="shape=umlBoundary;whiteSpace=wrap;html=1;" vertex="1" parent="1">
                    <mxGeometry x="190" y="430" width="100" height="80" as="geometry"/>
                </mxCell>
                <mxCell id="4" value="「注文履歴」ボタンを押す" style="ellipse;shape=umlControl;whiteSpace=wrap;html=1;" vertex="1" parent="1">
                    <mxGeometry x="400" y="420" width="80" height="90" as="geometry"/>
                </mxCell>
                <mxCell id="5" value="注文履歴画面&lt;div&gt;注文一覧&lt;/div&gt;" style="shape=umlBoundary;whiteSpace=wrap;html=1;" vertex="1" parent="1">
                    <mxGeometry x="610" y="480" width="100" height="80" as="geometry"/>
                </mxCell>
                <mxCell id="6" value="「キャンセル」ボタンを押す" style="ellipse;shape=umlControl;whiteSpace=wrap;html=1;" vertex="1" parent="1">
                    <mxGeometry x="590" y="710" width="80" height="80" as="geometry"/>
                </mxCell>
                <mxCell id="7" value="キャンセル済み" style="ellipse;shape=umlControl;whiteSpace=wrap;html=1;" vertex="1" parent="1">
                    <mxGeometry x="405" y="850" width="70" height="80" as="geometry"/>
                </mxCell>
                <mxCell id="8" value="キャンセル完了メッセージ画面" style="shape=umlBoundary;whiteSpace=wrap;html=1;" vertex="1" parent="1">
                    <mxGeometry x="210" y="730" width="110" height="80" as="geometry"/>
                </mxCell>
                <mxCell id="9" value="キャンセル不可" style="ellipse;shape=umlControl;whiteSpace=wrap;html=1;" vertex="1" parent="1">
                    <mxGeometry x="405" y="585" width="70" height="80" as="geometry"/>
                </mxCell>
                <mxCell id="10" value="" style="endArrow=classic;html=1;exitX=0.5;exitY=0.5;exitDx=0;exitDy=0;exitPerimeter=0;entryX=-0.027;entryY=0.492;entryDx=0;entryDy=0;entryPerimeter=0;" edge="1" parent="1" source="2" target="3">
                    <mxGeometry width="50" height="50" relative="1" as="geometry">
                        <mxPoint x="200" y="690" as="sourcePoint"/>
                        <mxPoint x="250" y="640" as="targetPoint"/>
                    </mxGeometry>
                </mxCell>
                <mxCell id="11" value="" style="endArrow=classic;html=1;entryX=-0.008;entryY=0.63;entryDx=0;entryDy=0;entryPerimeter=0;exitX=1.033;exitY=0.575;exitDx=0;exitDy=0;exitPerimeter=0;" edge="1" parent="1" source="3" target="4">
                    <mxGeometry width="50" height="50" relative="1" as="geometry">
                        <mxPoint x="80" y="530" as="sourcePoint"/>
                        <mxPoint x="197" y="479" as="targetPoint"/>
                    </mxGeometry>
                </mxCell>
                <mxCell id="12" value="" style="endArrow=classic;html=1;exitX=1.017;exitY=0.704;exitDx=0;exitDy=0;exitPerimeter=0;entryX=-0.027;entryY=0.5;entryDx=0;entryDy=0;entryPerimeter=0;" edge="1" parent="1" source="4" target="5">
                    <mxGeometry width="50" height="50" relative="1" as="geometry">
                        <mxPoint x="175" y="530" as="sourcePoint"/>
                        <mxPoint x="590" y="510" as="targetPoint"/>
                    </mxGeometry>
                </mxCell>
                <mxCell id="13" value="" style="endArrow=classic;startArrow=classic;html=1;entryX=0;entryY=0.625;entryDx=0;entryDy=0;entryPerimeter=0;exitX=0.962;exitY=0.542;exitDx=0;exitDy=0;exitPerimeter=0;" edge="1" parent="1" source="9" target="5">
                    <mxGeometry width="50" height="50" relative="1" as="geometry">
                        <mxPoint x="500" y="650" as="sourcePoint"/>
                        <mxPoint x="550" y="600" as="targetPoint"/>
                    </mxGeometry>
                </mxCell>
                <mxCell id="14" value="" style="endArrow=classic;html=1;entryX=0.608;entryY=0.133;entryDx=0;entryDy=0;entryPerimeter=0;exitX=0.64;exitY=1.008;exitDx=0;exitDy=0;exitPerimeter=0;" edge="1" parent="1" source="5" target="6">
                    <mxGeometry width="50" height="50" relative="1" as="geometry">
                        <mxPoint x="500" y="650" as="sourcePoint"/>
                        <mxPoint x="550" y="600" as="targetPoint"/>
                    </mxGeometry>
                </mxCell>
                <mxCell id="15" value="" style="endArrow=classic;html=1;entryX=0.957;entryY=0.467;entryDx=0;entryDy=0;entryPerimeter=0;exitX=0.158;exitY=0.925;exitDx=0;exitDy=0;exitPerimeter=0;" edge="1" parent="1" source="6" target="7">
                    <mxGeometry width="50" height="50" relative="1" as="geometry">
                        <mxPoint x="684" y="571" as="sourcePoint"/>
                        <mxPoint x="649" y="731" as="targetPoint"/>
                    </mxGeometry>
                </mxCell>
                <mxCell id="16" value="" style="endArrow=classic;html=1;entryX=0.879;entryY=0.875;entryDx=0;entryDy=0;entryPerimeter=0;exitX=0.033;exitY=0.525;exitDx=0;exitDy=0;exitPerimeter=0;" edge="1" parent="1" source="7" target="8">
                    <mxGeometry width="50" height="50" relative="1" as="geometry">
                        <mxPoint x="694" y="581" as="sourcePoint"/>
                        <mxPoint x="659" y="741" as="targetPoint"/>
                    </mxGeometry>
                </mxCell>
                <mxCell id="17" value="キャンセル不可の商品" style="text;html=1;align=center;verticalAlign=middle;resizable=0;points=[];autosize=1;strokeColor=none;fillColor=none;" vertex="1" parent="1">
                    <mxGeometry x="430" y="550" width="140" height="30" as="geometry"/>
                </mxCell>
                <mxCell id="18" value="キャンセル可能な商品" style="text;html=1;align=center;verticalAlign=middle;resizable=0;points=[];autosize=1;strokeColor=none;fillColor=none;" vertex="1" parent="1">
                    <mxGeometry x="660" y="635" width="140" height="30" as="geometry"/>
                </mxCell>
            </root>
        </mxGraphModel>
    </diagram>
</mxfile>